# xmcd
#
# Track frame offsets: 
#        150
#        15717
#        31030
#        55230
#        83642
#        97292
#        109957
#        131923
#        154619
#        170367
#
# Disc length: 2622 seconds
#
# Revision: 0
# Processed by: cddbd v1.5.2PL0 Copyright (c) Steve Scherf et al.
# Submitted via: ExactAudioCopy v0.99pb5
#
DISCID=7b0a3c0a
DTITLE=Twenty Four Seven - Hard Times
DYEAR=2002
DGENRE=Blues
TTITLE0=Anyway
TTITLE1=Gonna Change
TTITLE2=Pawn Shop
TTITLE3=Hard Times
TTITLE4=Voodoo Chillin'
TTITLE5=24-7
TTITLE6=Crosscut Saw
TTITLE7=Stubborn You
TTITLE8=Cadillac Car
TTITLE9=Dreamer
EXTD=
EXTT0=
EXTT1=
EXTT2=
EXTT3=
EXTT4=
EXTT5=
EXTT6=
EXTT7=
EXTT8=
EXTT9=
PLAYORDER=
